# Blender v2.79 (sub 0) OBJ File: ''
# www.blender.org
mtllib skybox.mtl
o Cube_Cube.001
v -1.000000 -1.000000 1.000000
v -1.000000 1.000000 1.000000
v -1.000000 -1.000000 -1.000000
v -1.000000 1.000000 -1.000000
v 1.000000 -1.000000 1.000000
v 1.000000 1.000000 1.000000
v 1.000000 -1.000000 -1.000000
v 1.000000 1.000000 -1.000000
vt 0.000087 0.750000
vt 0.250000 0.750000
vt 0.250000 0.500087
vt 0.000087 0.500087
vt 0.250000 0.250173
vt 0.250000 0.250000
vt 0.499913 0.250000
vt 0.499913 0.000087
vt 0.000087 0.999913
vt 0.250000 0.999913
vt 0.749827 0.250000
vt 0.749827 0.000087
vt 0.000087 0.250000
vt 0.250000 0.000087
vt 0.000087 0.250173
vt 0.000087 0.000087
vn 1.0000 0.0000 0.0000
vn 0.0000 0.0000 1.0000
vn -1.0000 0.0000 0.0000
vn 0.0000 0.0000 -1.0000
vn 0.0000 1.0000 0.0000
vn 0.0000 -1.0000 0.0000
usemtl None
s off
f 2/1/1 1/2/1 3/3/1
f 4/4/2 3/3/2 7/5/2
f 8/6/3 7/7/3 5/8/3
f 6/9/4 5/10/4 1/2/4
f 7/7/5 3/11/5 1/12/5
f 4/13/6 8/6/6 6/14/6
f 2/1/1 3/3/1 4/4/1
f 4/4/2 7/5/2 8/15/2
f 8/6/3 5/8/3 6/14/3
f 6/9/4 1/2/4 2/1/4
f 7/7/5 1/12/5 5/8/5
f 4/13/6 6/14/6 2/16/6
